<svg width="1978" height="454" viewBox="0 0 1978 454" fill="none" xmlns="http://www.w3.org/2000/svg">
<g clip-path="url(#clip0)">
<path d="M1898.19 374.61C1773.81 374.61 1681.49 364.69 1621.25 344.85C1560.1 324.58 1522.67 304.96 1508.95 285.97C1495.23 267.85 1488.07 253.41 1487.47 242.62C1487.76 284.9 1507.3 321.99 1546.08 353.9C1584.56 385.39 1635.41 409.98 1698.64 427.66C1760.98 444.92 1829.13 453.54 1903.1 453.54H1977.82V374.61H1898.19ZM1568.45 242.62C1687.16 242.62 1776.34 251.25 1836 268.5C1896.55 286.19 1935.32 304.31 1952.33 322.85C1968.73 342.26 1977.23 359.52 1977.83 374.61C1977.83 315.09 1959.49 270.02 1922.8 239.39C1884.92 208.33 1837.19 188.07 1779.63 178.57C1722.36 169.09 1650.33 164.34 1563.54 164.34H1538.04C1475.1 164.34 1426.48 162.83 1392.19 159.81C1355.8 156.8 1328.36 149.03 1309.87 136.52C1291.67 124.45 1280.19 112.58 1275.42 100.94C1271.54 91.88 1269.3 84.77 1268.71 79.59H1347.9C1429.92 79.59 1479.28 79.81 1495.99 80.24C1498.37 80.67 1504.78 80.89 1515.23 80.89C1557.29 81.32 1589.35 87.79 1611.42 100.3C1632.89 112.38 1646.91 124.89 1653.48 137.83C1659.44 150.34 1662.43 159.18 1662.43 164.36C1662.43 116.06 1653.18 79.83 1634.69 55.66C1616.49 32.8 1591.14 17.71 1558.63 10.37C1526.99 3.46 1482.7 0 1425.73 0L1268.24 0.65V79.58C1268.83 123.15 1278.53 156.57 1297.32 179.86C1316.4 204.02 1341.91 220.41 1373.83 229.03C1404.55 237.23 1442.43 241.76 1487.47 242.62H1568.45ZM984.19 408.9C1048.32 438.66 1118.86 453.54 1195.81 453.54H1408.25V375.25H1190.9C1066.82 375.25 974.06 353.04 912.62 308.61C850.58 264.19 811.95 219.97 796.74 175.98C781.82 134.57 774.07 102.44 773.48 79.58C774.07 156.79 793.17 223.44 830.75 279.5C868.91 336.87 920.06 380.01 984.19 408.9ZM1280.82 0.65H773.47V79.58H1280.83V0.65H1280.82ZM408.03 271.09C407.73 273.25 407.58 276.27 407.58 280.15C407.58 276.27 407.73 273.25 408.03 271.09ZM805.77 374.61H662.16V78.93H803.99V0.65H633.97C577 0.65 532.41 9.49 500.2 27.17C468.58 45.29 445.76 74.19 431.75 113.87C418.62 150.97 410.72 203.38 408.04 271.09C408.93 257.29 412.21 237.67 417.88 212.21C424.44 183.74 443.08 154.42 473.81 124.22C503.93 94.46 549.87 79.58 611.61 79.58L652.32 78.93V374.61H498.85V453.54H805.77V374.61ZM317.66 27.82C285.14 9.7 239.65 0.65 181.2 0.65H0V78.94H144.96V374.62H1.79V453.55H298.42V374.62H154.8V78.93L203.57 79.58C265.31 79.58 311.39 94.46 341.82 124.22C372.24 154.42 390.73 183.74 397.3 212.21C404.16 241.97 407.59 264.62 407.59 280.14C407.59 209.41 400.73 154.2 387.01 114.51C372.98 74.4 349.87 45.51 317.66 27.82Z" fill="#0000FF"/>
</g>
<defs>
<clipPath id="clip0">
<rect width="1977.83" height="453.54" fill="white"/>
</clipPath>
</defs>
</svg>
